<?xml version="1.0" encoding="UTF-8" standalone="no"?>
<!-- Created with Serif DrawPlus 12,0,4,27 (May 24, 08:37:51) (http://www.serif.com) -->
<svg version="1.1" xmlns="http://www.w3.org/2000/svg" xmlns:xlink="http://www.w3.org/1999/xlink" width="60.7213" height="117.021">
	<g id="dp_group001" transform="matrix(1,0,0,1,-597.763,-101.851)">
		<path id="dp_path002" fill="#ffdb00" fill-rule="evenodd" stroke="#7e6400" stroke-width="1.33333" d="M 626.197,142.06 L 632.729,139.233 L 657.184,195.745 L 650.652,198.572 Z "/>
		<path id="dp_path003" fill="#efb400" fill-rule="evenodd" stroke="#7e6400" stroke-width="1.33333" d="M 614.616,144.915 L 624.855,140.484 L 650.864,200.589 L 640.625,205.02 Z "/>
		<g id="dp_group004">
			<path id="dp_path005" fill="#e6ff8a" fill-rule="evenodd" stroke="#f6ff56" stroke-width="2.66667" d="M 647.909,209.327 L 642.199,205.043"/>
			<path id="dp_path006" fill="#e6ff8a" fill-rule="evenodd" stroke="#f6ff56" stroke-width="6.66667" d="M 655.509,212.023 L 647.529,203.992"/>
			<path id="dp_path007" fill="#e6ff8a" fill-rule="evenodd" stroke="#f6ff56" stroke-width="6.66667" d="M 654.699,211.991 L 649.584,201.291"/>
			<path id="dp_path008" fill="#efb400" fill-rule="evenodd" stroke="#efb400" stroke-width="1.33333" d="M 645.024,197.24 L 650.365,200.423 L 646.319,207.215 L 640.977,204.033 Z "/>
			<path id="dp_path009" fill="#efb400" fill-rule="evenodd" stroke="#efb400" stroke-width="1.33333" d="M 657.619,217.841 L 640.297,204.148"/>
			<path id="dp_path010" fill="#efb400" fill-rule="evenodd" stroke="#efb400" stroke-width="1.33333" d="M 657.379,217.74 L 657.187,195.592"/>
			<g id="dp_group011">
				<path id="dp_path012" fill="#efb400" fill-rule="evenodd" d="M 641.096,204.747 C 641.941,204.653 642.135,205.057 642.696,205.151 C 642.696,205.151 642.696,205.34 642.696,205.34 C 642.959,205.352 643.709,205.517 643.725,205.747 C 643.905,205.752 643.9,205.736 644.095,205.755 C 644.095,205.679 644.095,205.943 644.095,205.943 C 644.168,205.947 644.279,205.947 644.279,205.947 C 644.343,205.975 644.295,206.12 644.295,206.12 C 644.591,206.232 644.657,205.98 644.728,206.347 C 644.84,206.347 645.024,206.345 645.293,206.347 C 645.293,206.271 645.293,206.535 645.293,206.535 C 645.58,206.623 646.165,206.376 646.12,206.745 C 646.304,206.748 646.292,206.74 646.493,206.751 C 646.493,206.825 646.493,206.939 646.493,206.939 C 647.444,206.859 646.74,207.232 647.692,207.153 C 647.692,207.077 647.692,207.343 647.692,207.343 C 648.704,207.289 647.785,207.84 648.891,207.768 C 648.831,207.732 648.903,207.945 648.903,207.945 C 649.065,207.945 649.119,207.945 649.28,207.945 C 649.28,207.952 649.3,208.052 649.291,208.123 C 649.531,208.175 649.672,208.131 649.891,208.145"/>
				<path id="dp_path013" fill="none" fill-rule="evenodd" stroke="#e9ff8d" stroke-width="1.33333" d="M 641.096,204.747 C 641.941,204.653 642.135,205.057 642.696,205.151 C 642.696,205.151 642.696,205.34 642.696,205.34 C 642.959,205.352 643.709,205.517 643.725,205.747 C 643.905,205.752 643.9,205.736 644.095,205.755 C 644.095,205.679 644.095,205.943 644.095,205.943 C 644.168,205.947 644.279,205.947 644.279,205.947 C 644.343,205.975 644.295,206.12 644.295,206.12 C 644.591,206.232 644.657,205.98 644.728,206.347 C 644.84,206.347 645.024,206.345 645.293,206.347 C 645.293,206.271 645.293,206.535 645.293,206.535 C 645.58,206.623 646.165,206.376 646.12,206.745 C 646.304,206.748 646.292,206.74 646.493,206.751 C 646.493,206.825 646.493,206.939 646.493,206.939 C 647.444,206.859 646.74,207.232 647.692,207.153 C 647.692,207.077 647.692,207.343 647.692,207.343 C 648.704,207.289 647.785,207.84 648.891,207.768 C 648.831,207.732 648.903,207.945 648.903,207.945 C 649.065,207.945 649.119,207.945 649.28,207.945 C 649.28,207.952 649.3,208.052 649.291,208.123 C 649.531,208.175 649.672,208.131 649.891,208.145"/>
			</g>
			<path id="dp_path014" fill="#e6ff8a" fill-rule="evenodd" stroke="#f6ff56" stroke-width="6.66667" d="M 656.051,214.996 L 646.715,207.029"/>
			<path id="dp_path015" fill="#e6ff8a" fill-rule="evenodd" stroke="#f6ff56" stroke-width="1.33333" d="M 642.255,205.145 L 647.704,207.899"/>
			<path id="dp_path016" fill="#e6ff8a" fill-rule="evenodd" stroke="#f6ff56" stroke-width="2.66667" d="M 647.093,206.879 L 651.273,200.047"/>
			<path id="dp_path017" fill="#e6ff8a" fill-rule="evenodd" stroke="#f6ff56" stroke-width="2.66667" d="M 650.867,199.027 L 656.78,216.464"/>
			<path id="dp_path018" fill="#fcffd8" fill-rule="evenodd" stroke="#fcffd8" stroke-width="2.66667" d="M 652.008,198.649 L 656.605,212.697"/>
			<path id="dp_path019" fill="#fcffd8" fill-rule="evenodd" stroke="#fcffd8" stroke-width="2.66667" d="M 652.008,198.649 L 656.605,212.697"/>
			<path id="dp_path020" fill="#fcffd8" fill-rule="evenodd" stroke="#fcffd8" stroke-width="2.66667" d="M 652.008,198.649 L 656.605,212.697"/>
			<path id="dp_path021" fill="#ffdb00" fill-rule="evenodd" stroke="#fafaf5" stroke-width="1.33333" d="M 656.713,212.048 L 653.012,199.313"/>
			<path id="dp_path022" fill="#ffdb00" fill-rule="evenodd" stroke="#fafaf5" stroke-width="1.33333" d="M 657.028,212.072 L 653.496,199.289"/>
			<path id="dp_path023" fill="#ffdb00" fill-rule="evenodd" stroke="#fafaf5" stroke-width="1.33333" d="M 656.785,212.135 L 653.74,199.227"/>
			<path id="dp_path024" fill="#ffdb00" fill-rule="evenodd" stroke="#fafaf5" stroke-width="1.33333" d="M 656.529,212.189 L 653.996,199.172"/>
			<path id="dp_path025" fill="#ffdb00" fill-rule="evenodd" stroke="#fafaf5" stroke-width="1.33333" d="M 656.892,212.196 L 654.432,199.164"/>
			<path id="dp_path026" fill="#ffdb00" fill-rule="evenodd" stroke="#fafaf5" stroke-width="1.33333" d="M 656.512,212.257 L 654.812,199.104"/>
			<path id="dp_path027" fill="#ffdb00" fill-rule="evenodd" stroke="#fafaf5" stroke-width="1.33333" d="M 656.856,212.264 L 655.268,199.097"/>
			<path id="dp_path028" fill="#ffdb00" fill-rule="evenodd" stroke="#fafaf5" stroke-width="1.33333" d="M 656.796,211.137 L 656.309,199.039"/>
			<path id="dp_path029" fill="#ffdb00" fill-rule="evenodd" stroke="#fafaf5" stroke-width="1.33333" d="M 656.396,211.137 L 655.909,199.039"/>
			<path id="dp_path030" fill="#ffdb00" fill-rule="evenodd" stroke="#fafaf5" stroke-width="1.33333" d="M 656.945,211.147 L 656.88,196.457"/>
			<path id="dp_path031" fill="#ffdb00" fill-rule="evenodd" stroke="#fafaf5" stroke-width="1.33333" d="M 656.945,211.147 L 656.612,197.584"/>
			<path id="dp_path032" fill="#ffdb00" fill-rule="evenodd" stroke="#fafaf5" stroke-width="1.33333" d="M 656.545,211.147 L 656.064,198.211"/>
			<path id="dp_path033" fill="#ffdb00" fill-rule="evenodd" stroke="#ffdb00" stroke-width="1.33333" d="M 652.565,193.917 L 656.551,195.316 L 654.948,199.88 L 650.963,198.481 Z "/>
			<path id="dp_path034" fill="#4a2700" fill-rule="evenodd" stroke="#4a2700" stroke-width="1.33333" d="M 657.324,218.096 C 657.423,218.053 657.523,218.009 657.623,217.963 C 657.645,217.752 657.692,217.54 657.764,217.331 C 657.883,216.985 657.892,216.519 657.816,214.673 C 657.784,213.907 657.664,212.859 657.735,211.863 C 656.947,211.965 656.097,212.225 655.261,212.648 C 654.249,213.156 653.416,213.823 652.836,214.529 C 652.889,214.552 652.931,214.572 652.953,214.583 C 653.051,214.631 653.461,215.009 653.463,215.237 C 653.979,215.6 654.46,216.023 654.92,216.44 C 655.6,217.059 656.492,217.551 657.271,218.117 C 657.289,218.109 657.307,218.103 657.324,218.096 Z "/>
		</g>
		<g id="dp_group035">
			<path id="dp_path036" fill="white" fill-rule="evenodd" stroke="black" stroke-width="1.33333" d="M 619.584,134.336 C 625.681,131.263 631.957,131.413 633.601,134.675 C 635.244,137.936 631.633,143.071 625.536,146.144 C 619.439,149.217 613.163,149.067 611.519,145.805 C 609.876,142.544 613.487,137.409 619.584,134.336 Z "/>
			<path id="dp_path037" fill="white" fill-rule="evenodd" stroke="black" stroke-width="1.33333" d="M 617.985,131.137 C 624.083,128.064 630.359,128.216 632.001,131.477 C 633.645,134.739 630.035,139.873 623.937,142.947 C 617.84,146.02 611.564,145.868 609.92,142.607 C 608.276,139.345 611.888,134.211 617.985,131.137 Z "/>
		</g>
		<path id="dp_path038" fill="#ff6f00" fill-rule="evenodd" stroke="black" stroke-width="1.33333" d="M 615.987,127.54 C 622.084,124.467 628.36,124.619 630.003,127.88 C 631.647,131.14 628.036,136.276 621.939,139.349 C 615.841,142.423 609.565,142.271 607.921,139.009 C 606.277,135.748 609.889,130.613 615.987,127.54 Z "/>
		<path id="dp_path039" fill="#ff6f00" fill-rule="evenodd" stroke="#ff6f00" stroke-width="1.33333" d="M 600.524,116.783 L 619.311,108.3 L 627.392,126.197 L 608.605,134.68 Z "/>
		<path id="dp_path040" fill="#dd4b00" fill-rule="evenodd" stroke="#dd4b00" stroke-width="1.33333" d="M 601.528,116.651 L 606.787,114.379 L 614.572,132.407 L 609.315,134.677 Z "/>
		<path id="dp_path041" fill="#ff9c14" fill-rule="evenodd" stroke="#efb400" stroke-width="1.33333" d="M 616.587,110.232 L 619.924,108.668 L 628.257,126.451 L 624.92,128.015 Z "/>
		<path id="dp_path042" fill="#ff6f00" fill-rule="evenodd" stroke="#ff6f00" stroke-width="1.33333" d="M 607.145,106.58 C 612.327,103.968 617.744,104.265 619.245,107.244 C 620.747,110.221 617.763,114.753 612.581,117.365 C 607.399,119.977 601.981,119.68 600.481,116.701 C 598.98,113.724 601.964,109.192 607.145,106.58 Z "/>
	</g>
</svg>